<svg xmlns="http://www.w3.org/2000/svg" width="24" height="24" viewBox="0 0 24 24" fill="none">
  <path d="M12 24C18.6274 24 24 18.6274 24 12C24 5.37258 18.6274 0 12 0C5.37258 0 0 5.37258 0 12C0 18.6274 5.37258 24 12 24Z" fill="#3065D4"/>
  <path fill-rule="evenodd" clip-rule="evenodd" d="M0.588715 8.28019C2.15567 3.4757 6.67511 0 12 0C17.3249 0 21.8443 3.47568 23.4113 8.28016C15.7915 7.07071 8.18399 7.07503 0.588715 8.28019Z" fill="#454A75"/>
  <path fill-rule="evenodd" clip-rule="evenodd" d="M23.9827 11.3499C23.9942 11.5652 24 11.782 24 12.0001C24 18.6231 18.623 24.0001 12 24.0001C5.37696 24.0001 0 18.6231 0 12.0001C0 11.782 0.00575344 11.5652 0.0172734 11.3499C7.95887 10.345 15.9473 10.3423 23.9827 11.3499Z" fill="#3065D4"/>
  <path fill-rule="evenodd" clip-rule="evenodd" d="M0.0177612 11.3499C0.0748497 10.2839 0.271246 9.25477 0.589114 8.28023C8.18439 7.07507 15.7918 7.07079 23.4117 8.28023C23.7296 9.25473 23.926 10.284 23.9831 11.3499C15.9477 10.3422 7.95945 10.3449 0.0177612 11.3499Z" fill="white"/>
  <path fill-rule="evenodd" clip-rule="evenodd" d="M5.16025 2.14158L5.16025 21.8585C5.6907 22.2276 6.25229 22.5546 6.84025 22.8354L6.84025 1.16468C6.25229 1.44555 5.6907 1.77256 5.16025 2.14158Z" fill="white"/>
  <path fill-rule="evenodd" clip-rule="evenodd" d="M17.1603 1.16468V22.8354C17.7482 22.5546 18.3098 22.2276 18.8403 21.8585V2.14158C18.3098 1.77256 17.7482 1.44555 17.1603 1.16468Z" fill="white"/>
</svg>