<svg width="36" height="36" viewBox="0 0 36 36" fill="none" xmlns="http://www.w3.org/2000/svg">
<g clip-path="url(#clip0_497_24)">
<mask id="mask0_497_24" style="mask-type:luminance" maskUnits="userSpaceOnUse" x="0" y="0" width="36" height="36">
<path d="M35.9319 0H0V35.9319H35.9319V0Z" fill="white"/>
</mask>
<g mask="url(#mask0_497_24)">
<path fill-rule="evenodd" clip-rule="evenodd" d="M17.9659 0C27.8883 0 35.9319 8.04361 35.9319 17.9659C35.9319 27.8883 27.8883 35.9319 17.9659 35.9319C8.04361 35.9319 0 27.8883 0 17.9659C0 8.04361 8.04361 0 17.9659 0Z" fill="#2775CA"/>
<path fill-rule="evenodd" clip-rule="evenodd" d="M22.0711 5.31542C21.6659 5.186 21.3347 5.42646 21.3347 5.85181V6.89785C21.3347 7.18303 21.5496 7.50763 21.8173 7.60576C26.1176 9.18078 29.1948 13.3141 29.1948 18.1532C29.1948 22.9923 26.1176 27.1254 21.8173 28.7006C21.5237 28.8081 21.3347 29.0958 21.3347 29.4085V30.4544C21.3347 30.8798 21.6659 31.1203 22.0711 30.9909C27.5053 29.2545 31.4404 24.1634 31.4404 18.1532C31.4404 12.1429 27.5053 7.05171 22.0711 5.31542Z" fill="white"/>
<path fill-rule="evenodd" clip-rule="evenodd" d="M14.5973 5.85181C14.5973 5.42646 14.2661 5.186 13.8609 5.31542C8.42656 7.05171 4.49146 12.1428 4.49146 18.1532C4.49146 24.1636 8.42656 29.2545 13.8609 30.9909C14.2661 31.1203 14.5973 30.8798 14.5973 30.4544V29.4085C14.5973 29.1232 14.3824 28.7986 14.1146 28.7006C9.81444 27.1254 6.7372 22.9921 6.7372 18.1532C6.7372 13.3141 9.81444 9.18078 14.1146 7.60576C14.3824 7.50763 14.5973 7.18303 14.5973 6.89783V5.85181Z" fill="white"/>
<path d="M22.5603 21.6593L21.5326 21.2001C21.3063 21.0991 21.0395 21.1936 20.9299 21.416C20.4449 22.4004 19.6387 23.0278 18.5737 23.0278C17.6095 23.0278 16.8362 22.5556 16.2435 21.6014C16.0118 21.2323 15.8277 20.8202 15.6875 20.3688H18.4473C18.6222 20.3688 18.7823 20.2703 18.8612 20.114L19.5196 19.2253C19.6754 18.9169 19.4513 18.5527 19.1059 18.5527H15.377C15.3662 18.3614 15.3596 18.1665 15.3596 17.9656C15.3576 17.7665 15.3632 17.5714 15.3736 17.3792H18.4473C18.6222 17.3792 18.7823 17.2808 18.8612 17.1246L19.5196 16.2358C19.6754 15.9274 19.4513 15.5632 19.1059 15.5632H15.6841C16.1846 13.9315 17.2294 12.8624 18.5737 12.8834C19.5981 12.8834 20.3933 13.4442 20.9034 14.3627C21.0176 14.5686 21.2749 14.6475 21.4903 14.5524L22.5234 14.0963C22.7706 13.9872 22.8757 13.6883 22.7448 13.4519C21.7912 11.7297 20.4008 10.8646 18.5737 10.8646C16.9064 10.8646 15.5705 11.5275 14.5561 12.8433C13.9632 13.6182 13.5505 14.5275 13.3055 15.5632H11.8049C11.63 15.5632 11.4699 15.6616 11.3911 15.8178L10.7325 16.7066C10.5768 17.015 10.8009 17.3792 11.1463 17.3792H13.0576C13.0484 17.5722 13.0395 17.7655 13.0395 17.9656C13.0371 18.1639 13.0418 18.3592 13.0502 18.5527H11.8049C11.63 18.5527 11.4699 18.6512 11.3911 18.8073L10.7325 19.696C10.5768 20.0044 10.8009 20.3688 11.1463 20.3688H13.3012C13.9827 23.1854 15.9446 25.1063 18.5737 25.0666C20.4404 25.0666 21.8473 24.1386 22.7865 22.2909C22.906 22.0556 22.8013 21.767 22.5603 21.6593Z" fill="white"/>
</g>
</g>
<defs>
<clipPath id="clip0_497_24">
<rect width="36" height="36" fill="white"/>
</clipPath>
</defs>
</svg>
