<svg width="100%" height="100%" viewBox="0 0 2084 2084" version="1.1" xmlns="http://www.w3.org/2000/svg" xmlns:xlink="http://www.w3.org/1999/xlink" xml:space="preserve" xmlns:serif="http://www.serif.com/" style="fill-rule:evenodd;clip-rule:evenodd;stroke-linejoin:round;stroke-miterlimit:2;"><rect id="switch-icon" serif:id="switch icon" x="0" y="0" width="2083.33" height="2083.33" style="fill:none;"/><clipPath id="_clip1"><rect x="0" y="0" width="2083.33" height="2083.33"/></clipPath><g clip-path="url(#_clip1)"><g><circle cx="1041.67" cy="1041.67" r="1041.67" style="fill:#279744;"/><path d="M0.575,1076.57c-0,-0 256.119,-256.119 471.603,-471.604c77.316,-77.315 182.178,-120.75 291.519,-120.75c109.34,-0 214.203,43.435 291.518,120.75c118.111,118.112 244.86,244.86 323.199,323.2c20.003,20.003 31.011,47.282 30.492,75.566c-0.518,28.284 -12.518,55.141 -33.241,74.398c-0.119,0.11 -0.237,0.22 -0.355,0.33c-37.207,34.573 -95.148,33.338 -130.847,-2.79c-28.035,-28.372 -63.391,-64.152 -102.196,-103.424c-212.707,-215.263 -559.399,-218.11 -775.613,-6.37c-171.995,168.437 -335.678,328.734 -335.678,328.734c-17.524,-70.145 -27.929,-143.096 -30.401,-218.04Z" style="fill:#fff;"/><path d="M2040.04,743.772c20.8,69.716 34.489,142.484 40.226,217.463c-0,0 -285.431,285.431 -517.137,517.137c-77.315,77.315 -182.177,120.751 -291.518,120.751c-109.341,-0 -214.203,-43.436 -291.518,-120.751c-123.728,-123.728 -258.511,-258.51 -342.578,-342.578c-21.785,-21.785 -33.773,-51.494 -33.208,-82.297c0.564,-30.804 13.633,-60.053 36.202,-81.025c0.658,-0.612 1.315,-1.222 1.971,-1.831c35.465,-32.956 90.696,-31.779 124.725,2.659c33.255,33.655 77.492,78.423 126.065,127.58c212.707,215.263 559.4,218.11 775.613,6.37c187.174,-183.301 371.157,-363.478 371.157,-363.478Z" style="fill:#fff;"/></g></g></svg>