<svg width="36" height="36" viewBox="0 0 36 36" fill="none" xmlns="http://www.w3.org/2000/svg">
<path fill-rule="evenodd" clip-rule="evenodd" d="M8.95266 18C8.95266 22.9963 13.0037 27.0466 18 27.0466C20.7771 27.0466 23.2616 25.7948 24.921 23.8253L31.7705 29.5904C28.4686 33.5093 23.5255 36 18 36C8.05855 36 0 27.9409 0 18C0 8.05855 8.05855 0 18 0V8.95266C13.0037 8.95266 8.95266 13.003 8.95266 18ZM33.5533 27.064L25.8171 22.5555C26.081 22.1035 26.3072 21.6268 26.4906 21.1294L34.8935 24.2264C34.5286 25.2162 34.0786 26.1646 33.5533 27.064ZM27.0466 18H36C36 16.9337 35.9066 15.8893 35.7289 14.8739L26.9105 16.4288C26.9998 16.9391 27.0466 17.4641 27.0466 18ZM31.8364 6.48722L24.9542 12.2135C24.6173 11.8089 24.2455 11.4344 23.8438 11.094L29.6265 4.25986C30.4261 4.93702 31.1657 5.68214 31.8364 6.48722Z" fill="#6344DF"/>
</svg>
