<svg width="36" height="36" viewBox="0 0 36 36" fill="none" xmlns="http://www.w3.org/2000/svg">
<g clip-path="url(#clip0_497_9)">
<path d="M29.3542 7.55517L28.3657 8.54364C30.7244 11.123 32.0324 14.4916 32.0324 17.9868C32.0324 21.482 30.7244 24.8506 28.3657 27.43L29.3542 28.4184C31.9773 25.5732 33.4336 21.8451 33.4336 17.9753C33.4336 14.1054 31.9773 10.3773 29.3542 7.5321V7.55517Z" fill="#5A5564"/>
<path d="M8.56671 7.64083C11.1461 5.28218 14.5147 3.97419 18.0099 3.97419C21.505 3.97419 24.8737 5.28218 27.453 7.64083L28.4415 6.65236C25.5963 4.0293 21.8682 2.573 17.9983 2.573C14.1285 2.573 10.4004 4.0293 7.55518 6.65236L8.56671 7.64083Z" fill="#5A5564"/>
<path d="M7.64107 27.4399C5.28522 24.8611 3.97895 21.4945 3.97895 18.0016C3.97895 14.5088 5.28522 11.1422 7.64107 8.56342L6.65261 7.57495C4.02954 10.4202 2.57324 14.1483 2.57324 18.0181C2.57324 21.888 4.02954 25.6161 6.65261 28.4613L7.64107 27.4399Z" fill="#5A5564"/>
<path d="M27.4397 28.3525C24.8604 30.7112 21.4917 32.0192 17.9966 32.0192C14.5014 32.0192 11.1328 30.7112 8.55341 28.3525L7.56494 29.341C10.4101 31.9641 14.1383 33.4204 18.0081 33.4204C21.8779 33.4204 25.6061 31.9641 28.4513 29.341L27.4397 28.3525Z" fill="#5A5564"/>
<path d="M24.2403 14.7018C24.0426 12.6392 22.2634 11.9473 20.0129 11.7364V8.89624H18.2732V11.6837C17.8152 11.6837 17.3474 11.6837 16.8828 11.6837V8.89624H15.1563V11.7562H11.6274V13.6178C11.6274 13.6178 12.9124 13.5948 12.8927 13.6178C13.1244 13.5923 13.3569 13.6578 13.5413 13.8004C13.7257 13.943 13.8475 14.1516 13.8811 14.3822V22.2109C13.8762 22.2923 13.855 22.3718 13.8188 22.4448C13.7825 22.5178 13.7321 22.5828 13.6703 22.6359C13.6097 22.6901 13.5387 22.7315 13.4617 22.7575C13.3847 22.7836 13.3032 22.7938 13.2222 22.7875C13.2452 22.8073 11.9569 22.7875 11.9569 22.7875L11.6274 24.8666H15.1233V27.7727H16.863V24.9094H18.2535V27.7595H19.9965V24.8864C22.9355 24.7084 24.9849 23.9836 25.2419 21.2323C25.4495 19.0182 24.4083 18.0297 22.7444 17.631C23.7559 17.1335 24.382 16.2109 24.2403 14.7018ZM21.8021 20.8897C21.8021 23.0511 18.0986 22.804 16.919 22.804V18.9687C18.0986 18.972 21.8021 18.6326 21.8021 20.8897ZM20.9948 15.486C20.9948 17.463 17.9042 17.2224 16.9223 17.2224V13.7364C17.9042 13.7364 20.9948 13.4267 20.9948 15.486Z" fill="#F09242"/>
<path d="M17.9967 36C14.4369 35.9994 10.9573 34.9432 7.99769 32.9651C5.03811 30.987 2.73152 28.1757 1.36955 24.8868C0.00757708 21.5979 -0.348605 17.9789 0.346034 14.4876C1.04067 10.9962 2.75494 7.78923 5.27209 5.27209C7.78923 2.75494 10.9962 1.04067 14.4876 0.346034C17.9789 -0.348605 21.5979 0.00757708 24.8868 1.36955C28.1757 2.73152 30.987 5.03811 32.9651 7.99769C34.9432 10.9573 35.9994 14.4369 36 17.9967C36.0004 20.3611 35.5351 22.7023 34.6305 24.8868C33.7259 27.0712 32.3998 29.0561 30.7279 30.7279C29.0561 32.3998 27.0712 33.7259 24.8868 34.6305C22.7023 35.5351 20.3611 36.0004 17.9967 36ZM17.9967 1.40363C14.7171 1.40624 11.5118 2.38107 8.78603 4.20491C6.06027 6.02875 3.93639 8.61972 2.68282 11.6504C1.42926 14.681 1.10229 18.0152 1.74323 21.2316C2.38418 24.4481 3.96427 27.4023 6.2838 29.7209C8.60333 32.0395 11.5582 33.6184 14.7748 34.2581C17.9915 34.8977 21.3256 34.5694 24.3557 33.3147C27.3859 32.0599 29.976 29.935 31.7988 27.2085C33.6215 24.482 34.5951 21.2764 34.5964 17.9967C34.5972 15.8169 34.1684 13.6583 33.3344 11.6443C32.5005 9.63028 31.2777 7.80044 29.736 6.25937C28.1943 4.7183 26.364 3.49623 24.3497 2.66305C22.3353 1.82986 20.1765 1.4019 17.9967 1.40363Z" fill="#282138"/>
</g>
<defs>
<clipPath id="clip0_497_9">
<rect width="36" height="36" fill="white"/>
</clipPath>
</defs>
</svg>
